<?xml version="1.0" encoding="iso-8859-1"?>
<!-- Generator: Adobe Illustrator 19.0.0, SVG Export Plug-In . SVG Version: 6.00 Build 0)  -->
<svg version="1.1" id="Capa_1" xmlns="http://www.w3.org/2000/svg" x="0px" y="0px"
     viewBox="0 0 490.667 490.667" style="enable-background:new 0 0 490.667 490.667;" xml:space="preserve">
<g>
	<g>
		<path d="M488.683,214.617c-1.6-12.437-8.64-23.275-19.307-29.696c-10.496-6.315-23.125-7.509-34.837-3.115
			c-9.28,3.456-19.712-1.323-23.936-10.752c-4.971-11.157-11.093-21.824-18.219-31.701c-6.165-8.597-5.013-19.84,2.645-26.155
			c9.493-7.808,14.784-19.328,14.571-31.637c-0.256-12.459-6.123-23.979-16.149-31.573c-16.299-12.352-34.091-22.635-52.885-30.549
			c-11.627-4.885-24.597-4.245-35.541,1.792c-10.752,5.931-18.069,16.277-20.096,28.373c-1.643,9.856-10.837,16.363-21.44,15.36
			c-11.904-1.259-24.341-1.259-36.309,0c-10.645,0.981-19.776-5.504-21.419-15.36c-2.005-12.117-9.344-22.464-20.096-28.373
			c-10.944-6.016-23.915-6.677-35.541-1.792c-18.795,7.915-36.587,18.197-52.885,30.549c-10.027,7.595-15.893,19.093-16.149,31.573
			c-0.235,12.309,5.077,23.829,14.592,31.68c7.659,6.293,8.789,17.536,2.624,26.112c-7.125,9.899-13.269,20.565-18.219,31.68
			c-4.267,9.472-14.805,14.208-24.171,10.688c-11.477-4.309-24.107-3.157-34.624,3.179c-10.667,6.443-17.707,17.259-19.307,29.675
			C0.661,224.708,0,235.055,0,245.337c0,10.283,0.661,20.629,1.984,30.72c1.6,12.437,8.64,23.275,19.307,29.696
			c10.496,6.336,23.147,7.531,34.837,3.115c9.301-3.477,19.733,1.323,23.936,10.752c4.971,11.157,11.093,21.824,18.219,31.701
			c6.165,8.597,5.013,19.84-2.645,26.155c-9.493,7.808-14.784,19.328-14.571,31.637c0.256,12.459,6.123,23.979,16.149,31.573
			c16.299,12.352,34.091,22.635,52.885,30.549c5.163,2.155,10.581,3.243,15.979,3.243c6.763,0,13.483-1.685,19.563-5.056
			c10.752-5.931,18.069-16.277,20.096-28.373c1.643-9.856,10.795-16.448,21.44-15.36c11.904,1.259,24.341,1.259,36.309,0
			c10.581-1.109,19.776,5.504,21.419,15.36c2.005,12.117,9.344,22.464,20.096,28.373c10.944,6.016,23.915,6.677,35.541,1.792
			c18.795-7.915,36.587-18.197,52.885-30.549c10.027-7.595,15.893-19.093,16.149-31.573c0.213-12.309-5.099-23.829-14.592-31.659
			c-7.659-6.293-8.789-17.536-2.624-26.112c7.125-9.899,13.269-20.565,18.219-31.68c4.245-9.451,14.656-14.251,23.957-10.773
			l3.733-9.984l-3.52,10.069c11.52,4.352,24.107,3.179,34.624-3.179c10.667-6.443,17.707-17.259,19.307-29.675
			c1.323-10.133,1.984-20.48,1.984-30.763C490.667,235.055,490.005,224.708,488.683,214.617z M467.541,273.369
			c-0.747,5.931-4.117,11.072-9.173,14.123c-4.864,2.944-10.731,3.477-16.213,1.451l-0.192-0.064
			c-19.584-7.317-41.984,2.347-50.859,22.059c-4.373,9.813-9.771,19.2-16.064,27.947c-12.779,17.835-10.027,41.493,6.443,55.061
			c4.416,3.627,6.869,9.003,6.763,14.72c-0.128,5.931-2.901,11.413-7.68,15.019c-14.912,11.285-31.125,20.672-48.299,27.883
			c-5.547,2.325-11.755,2.048-16.96-0.832c-5.077-2.795-8.384-7.488-9.344-13.205c-3.52-21.12-22.613-35.243-44.693-33.045
			c-10.496,1.088-21.397,1.088-31.851,0c-22.08-2.432-41.195,11.883-44.715,33.045c-0.939,5.717-4.267,10.411-9.344,13.205
			c-5.205,2.901-11.413,3.179-16.96,0.832c-17.173-7.211-33.408-16.597-48.299-27.883c-4.757-3.605-7.552-9.088-7.68-14.997
			c-0.107-5.717,2.368-11.093,6.784-14.741c16.469-13.568,19.221-37.227,6.421-55.061c-6.293-8.747-11.691-18.133-16.085-27.968
			c-6.805-15.211-21.696-24.448-37.269-24.448c-4.629,0-9.301,0.811-13.845,2.496c-5.355,2.027-11.221,1.472-16.107-1.472
			c-5.077-3.051-8.427-8.192-9.173-14.144c-1.216-9.216-1.813-18.645-1.813-28.011c0-9.365,0.597-18.795,1.813-28.053
			c0.747-5.931,4.117-11.072,9.173-14.123c4.843-2.923,10.709-3.499,16.341-1.387c19.712,7.36,42.048-2.304,50.901-22.037
			c4.373-9.813,9.771-19.2,16.064-27.947c12.8-17.835,10.048-41.515-6.443-55.061c-4.416-3.627-6.869-9.003-6.763-14.72
			c0.128-5.931,2.923-11.392,7.68-15.019c14.891-11.285,31.125-20.672,48.299-27.883c5.547-2.347,11.755-2.069,16.96,0.811
			c5.077,2.795,8.384,7.488,9.344,13.205c3.541,21.141,22.741,35.371,44.693,33.088c10.496-1.088,21.397-1.088,31.851,0
			c22.059,2.261,41.195-11.904,44.715-33.045c0.939-5.717,4.267-10.411,9.344-13.205c5.205-2.901,11.413-3.179,16.96-0.832
			c17.173,7.211,33.408,16.597,48.299,27.883c4.757,3.605,7.552,9.088,7.68,14.997c0.107,5.717-2.368,11.093-6.784,14.741
			c-16.469,13.568-19.221,37.227-6.421,55.061c6.293,8.747,11.691,18.133,16.085,27.968c8.832,19.733,31.168,29.355,51.115,21.931
			c5.333-2.048,11.221-1.472,16.107,1.472c5.077,3.051,8.427,8.192,9.173,14.144c1.216,9.216,1.813,18.645,1.813,28.011
			C469.333,254.703,468.736,264.132,467.541,273.369z"/>
	</g>
</g>
    <g>
	<g>
		<path d="M245.333,149.337c-52.928,0-96,43.072-96,96c0,52.928,43.072,96,96,96c52.928,0,96-43.072,96-96
			C341.333,192.409,298.261,149.337,245.333,149.337z M245.333,320.004c-41.173,0-74.667-33.493-74.667-74.667
			s33.493-74.667,74.667-74.667S320,204.164,320,245.337S286.507,320.004,245.333,320.004z"/>
	</g>
</g>
    <g>
</g>
    <g>
</g>
    <g>
</g>
    <g>
</g>
    <g>
</g>
    <g>
</g>
    <g>
</g>
    <g>
</g>
    <g>
</g>
    <g>
</g>
    <g>
</g>
    <g>
</g>
    <g>
</g>
    <g>
</g>
    <g>
</g>
</svg>
